<?xml version="1.0" encoding="UTF-8"?>
<svg id="Layer_1" data-name="Layer 1" xmlns="http://www.w3.org/2000/svg" viewBox="0 0 1516.73 269.8">
  <defs>
    <style>
      .cls-1 {
        fill: #f1f2f2;
      }

      .cls-2 {
        fill: #fff;
      }

      .cls-3 {
        fill: #d48138;
      }
    </style>
  </defs>
  <path class="cls-1" d="M300.29,141.49l-6.43-14.72c-.76-1.74-2.48-2.86-4.37-2.86h-16.41c-5.19-64.75-59.32-115.92-125.27-116.39-69.6-.5-126.99,56.01-127.52,125.61-.54,70.26,56.46,127.6,126.6,127.6,65.94,0,120.25-50.67,126.08-115.11h24.63c2.12,0,3.55-2.18,2.7-4.13ZM146.88,31.46c53.16,0,97.01,40.62,102.15,92.44h-16.86l-16.95-37.2c-5.66-15.56-14.33-25.26-33.32-25.26-21.21,0-31.32,11.92-31.32,29.7v32.75h-13.06c-1.32,0-2.2,1.35-1.67,2.56l7.47,17.11c.54,1.24,1.77,2.04,3.12,2.04h4.14v28.27c-.8,3.42-3.61,5.56-7.84,5.56-4.44,0-7.07-2.42-8.69-5.66l-39.8-87.08c-4.32-11.89-10.3-20.35-21.36-23.68,18.69-19.44,44.95-31.56,73.98-31.56ZM206.27,123.9h-31.4v-34.55c.99-3.06,3.63-4.87,7.84-4.87s6.67,1.82,8.49,5.86l15.07,33.56ZM146.88,236.77c-56.6,0-102.66-46.05-102.66-102.66,0-17.67,4.49-34.31,12.38-48.84,1.61-.53,3.45-.79,5.32-.79,4.24,0,6.67,1.82,8.49,5.86l39.8,87.08c5.66,15.56,14.35,25.26,33.34,25.26,21.01,0,31.32-11.92,31.32-29.9v-27.16h41.15l18.69,41.61c-18.01,29.68-50.64,49.55-87.83,49.55ZM247.02,156.74l-4.95-11.12h6.82c-.42,3.77-1.05,7.48-1.87,11.12Z"/>
  <text/>
  <g>
    <path class="cls-2" d="M324.04,72.56c0-1.98,1.62-3.6,3.6-3.6h22.54c1.98,0,4.06,1.55,4.62,3.45l21.02,71.09c.56,1.9,1.12,3.45,1.24,3.45s.22-1.62.22-3.6v-70.8c0-1.98,1.62-3.6,3.6-3.6h13.92c1.98,0,3.6,1.62,3.6,3.6v123.11c0,1.98-1.62,3.6-3.6,3.6h-17.15c-1.98,0-4.06-1.55-4.63-3.45l-26.39-88.23c-.57-1.9-1.13-3.45-1.25-3.45s-.22,1.62-.22,3.6v87.92c0,1.98-1.62,3.6-3.6,3.6h-13.92c-1.98,0-3.6-1.62-3.6-3.6v-123.11Z"/>
    <path class="cls-2" d="M423.61,192.57c-6.18-5.71-8.67-20.65-8.67-20.65-.33-1.95-.59-5.17-.59-7.15v-61.3c0-1.98.27-5.2.59-7.15,0,0,2.49-14.94,8.67-20.65,6.18-5.71,15.09-8.56,26.72-8.56s20.54,2.86,26.72,8.56c6.18,5.71,8.67,20.65,8.67,20.65.33,1.95.59,5.17.59,7.15v61.3c0,1.98-.27,5.2-.59,7.15,0,0-2.5,14.94-8.67,20.65-6.18,5.71-15.08,8.56-26.72,8.56s-20.55-2.85-26.72-8.56ZM461.52,173.1c.6-1.89,1.09-5.05,1.09-7.03v-63.91c0-1.98-.49-5.14-1.09-7.03,0,0-3-9.41-11.19-9.41s-11.19,9.41-11.19,9.41c-.6,1.89-1.09,5.05-1.09,7.03v63.91c0,1.98.49,5.14,1.09,7.03,0,0,3,9.41,11.19,9.41s11.19-9.41,11.19-9.41Z"/>
    <path class="cls-2" d="M509.7,192.75c-5.96-5.58-8.36-20.09-8.36-20.09-.32-1.95-.59-5.17-.59-7.15v-62.79c0-1.98.26-5.2.59-7.15,0,0,2.39-14.5,8.36-20.09,5.96-5.58,14.62-8.38,25.97-8.38s20.01,2.79,25.97,8.38c5.96,5.59,8.36,20.09,8.36,20.09.32,1.95.59,5.17.59,7.15v6.58c0,1.98-1.62,3.6-3.6,3.6h-15.21c-1.98,0-3.6-1.62-3.6-3.6v-7.88c0-1.98-.5-5.14-1.12-7.02,0,0-2.84-8.68-10.74-8.68s-10.74,8.68-10.74,8.68c-.61,1.88-1.12,5.04-1.12,7.02v65.59c0,1.98.51,5.14,1.13,7.02,0,0,2.82,8.5,10.72,8.5s10.72-8.5,10.72-8.5c.62-1.88,1.13-5.04,1.13-7.02v-12.72c0-1.98,1.62-3.6,3.6-3.6h15.21c1.98,0,3.6,1.62,3.6,3.6v11.23c0,1.98-.26,5.2-.59,7.15,0,0-2.4,14.51-8.36,20.09-5.96,5.59-14.62,8.38-25.97,8.38s-20.01-2.79-25.97-8.38Z"/>
    <path class="cls-2" d="M603.34,91.18c0-1.98-1.62-3.6-3.6-3.6h-17.58c-1.98,0-3.6-1.62-3.6-3.6v-11.42c0-1.98,1.62-3.6,3.6-3.6h66.07c1.98,0,3.6,1.62,3.6,3.6v11.42c0,1.98-1.62,3.6-3.6,3.6h-17.58c-1.98,0-3.6,1.62-3.6,3.6v104.49c0,1.98-1.62,3.6-3.6,3.6h-16.51c-1.98,0-3.6-1.62-3.6-3.6v-104.49Z"/>
    <path class="cls-2" d="M671.44,192.66c-6.03-5.65-8.48-20.74-8.48-20.74-.32-1.95-.58-5.17-.58-7.15v-92.21c0-1.98,1.62-3.6,3.6-3.6h16.51c1.98,0,3.6,1.62,3.6,3.6v93.7c0,1.98.22,5.21.48,7.17,0,0,.56,4.13,2.64,6.11,2.08,1.99,5.06,2.98,8.94,2.98s6.86-.99,8.94-2.98c2.08-1.98,2.64-6.11,2.64-6.11.27-1.96.48-5.19.48-7.17v-93.7c0-1.98,1.62-3.6,3.6-3.6h15.64c1.98,0,3.6,1.62,3.6,3.6v92.21c0,1.98-.26,5.2-.58,7.15,0,0-2.44,15.09-8.48,20.74-6.03,5.65-14.8,8.47-26.29,8.47s-20.26-2.82-26.29-8.47Z"/>
    <path class="cls-2" d="M749.89,68.96h35.13c12.21,0,21.12,2.45,26.72,7.35,5.6,4.9,8.41,12.44,8.41,22.62v8c0,13.53-5.17,22.09-15.52,25.69v.37c5.74,1.49,9.81,4.53,12.18,9.12,2.37,4.59,3.56,10.74,3.56,18.43v22.9c0,3.72.14,6.73.43,9.03.29,2.3,1,4.56,2.16,6.79h-24.14c-.86-2.11-1.44-4.1-1.72-5.96-.29-1.86-.43-5.21-.43-10.05v-23.83c0-5.96-1.11-10.11-3.34-12.47-2.23-2.36-6.07-3.54-11.53-3.54h-8.19v55.85h-23.71V68.96ZM782.21,124.81c4.74,0,8.3-1.05,10.67-3.16,2.37-2.11,3.56-5.65,3.56-10.61v-10.05c0-4.71-.97-8.13-2.91-10.24-1.94-2.11-4.99-3.16-9.16-3.16h-10.78v37.23h8.62Z"/>
    <path class="cls-2" d="M836.74,72.56c0-1.98,1.62-3.6,3.6-3.6h22.54c1.98,0,4.06,1.55,4.62,3.45l21.02,71.09c.56,1.9,1.12,3.45,1.24,3.45s.22-1.62.22-3.6v-70.8c0-1.98,1.62-3.6,3.6-3.6h13.92c1.98,0,3.6,1.62,3.6,3.6v123.11c0,1.98-1.62,3.6-3.6,3.6h-17.15c-1.98,0-4.06-1.55-4.63-3.45l-26.39-88.23c-.57-1.9-1.13-3.45-1.25-3.45s-.22,1.62-.22,3.6v87.92c0,1.98-1.62,3.6-3.6,3.6h-13.92c-1.98,0-3.6-1.62-3.6-3.6v-123.11Z"/>
    <path class="cls-2" d="M946.41,72.5c.37-1.95,2.29-3.54,4.27-3.54h24.91c1.98,0,3.9,1.59,4.27,3.54l23.23,123.23c.37,1.95-.95,3.54-2.93,3.54h-16.51c-1.98,0-3.87-1.6-4.19-3.55l-3.13-18.77c-.33-1.95-.59-3.47-.59-3.37s-1.62.19-3.6.19h-19.74c-1.98,0-3.87,1.6-4.2,3.55l-3.11,18.4c-.33,1.95-2.22,3.55-4.2,3.55h-14.78c-1.98,0-3.3-1.59-2.93-3.54l23.23-123.23ZM969.34,156.08c1.98,0,3.34-1.6,3.02-3.55l-9.39-57.3c-.32-1.95-.68-3.55-.8-3.55s-.47,1.6-.79,3.55l-9.2,57.3c-.31,1.95,1.05,3.55,3.03,3.55h14.14Z"/>
    <path class="cls-2" d="M1015.18,72.56c0-1.98,1.62-3.6,3.6-3.6h16.51c1.98,0,3.6,1.62,3.6,3.6v104.49c0,1.98,1.62,3.6,3.6,3.6h31.81c1.98,0,3.6,1.62,3.6,3.6v11.42c0,1.98-1.62,3.6-3.6,3.6h-55.51c-1.98,0-3.6-1.62-3.6-3.6v-123.11Z"/>
    <path class="cls-3" d="M1091.46,183.14c0-1.98,1.62-3.6,3.6-3.6h10.46c1.98,0,3.6,1.62,3.6,3.6v12.53c0,1.98-1.62,3.6-3.6,3.6h-10.46c-1.98,0-3.6-1.62-3.6-3.6v-12.53Z"/>
    <path class="cls-2" d="M1147.78,72.5c.37-1.95,2.29-3.54,4.27-3.54h24.91c1.98,0,3.9,1.59,4.27,3.54l23.23,123.23c.37,1.95-.95,3.54-2.93,3.54h-16.51c-1.98,0-3.87-1.6-4.19-3.55l-3.13-18.77c-.33-1.95-.59-3.47-.59-3.37s-1.62.19-3.6.19h-19.74c-1.98,0-3.87,1.6-4.2,3.55l-3.11,18.4c-.33,1.95-2.22,3.55-4.2,3.55h-14.78c-1.98,0-3.3-1.59-2.93-3.54l23.23-123.23ZM1170.71,156.08c1.98,0,3.34-1.6,3.02-3.55l-9.39-57.3c-.32-1.95-.68-3.55-.8-3.55s-.47,1.6-.79,3.55l-9.2,57.3c-.31,1.95,1.05,3.55,3.03,3.55h14.14Z"/>
    <path class="cls-2" d="M1224.31,192.66c-6.03-5.65-8.48-20.74-8.48-20.74-.32-1.95-.58-5.17-.58-7.15v-92.21c0-1.98,1.62-3.6,3.6-3.6h16.51c1.98,0,3.6,1.62,3.6,3.6v93.7c0,1.98.22,5.21.48,7.17,0,0,.56,4.13,2.64,6.11,2.08,1.99,5.06,2.98,8.94,2.98s6.86-.99,8.94-2.98c2.08-1.98,2.64-6.11,2.64-6.11.27-1.96.48-5.19.48-7.17v-93.7c0-1.98,1.62-3.6,3.6-3.6h15.64c1.98,0,3.6,1.62,3.6,3.6v92.21c0,1.98-.26,5.2-.58,7.15,0,0-2.44,15.09-8.48,20.74-6.03,5.65-14.8,8.47-26.29,8.47s-20.26-2.82-26.29-8.47Z"/>
    <path class="cls-2" d="M1302.75,72.56c0-1.98,1.62-3.6,3.6-3.6h29.01c1.98,0,5.21.21,7.17.47,0,0,17.05,2.26,22.94,7.72,5.89,5.46,8.27,20.46,8.27,20.46.31,1.96.56,5.18.56,7.16v58.7c0,1.98-.25,5.2-.56,7.16,0,0-2.38,15-8.27,20.46-5.89,5.46-22.94,7.72-22.94,7.72-1.96.26-5.19.47-7.17.47h-29.01c-1.98,0-3.6-1.62-3.6-3.6v-123.11ZM1334.93,180.66c1.98,0,5.2-.23,7.16-.52,0,0,3.3-.48,5.38-2.46,2.08-1.98,2.64-6.11,2.64-6.11.27-1.96.48-5.19.48-7.17v-60.56c0-1.98-.22-5.21-.48-7.17,0,0-.56-4.13-2.64-6.11-2.08-1.98-5.38-2.46-5.38-2.46-1.96-.28-5.18-.52-7.16-.52h-4.87c-1.98,0-3.6,1.62-3.6,3.6v85.88c0,1.98,1.62,3.6,3.6,3.6h4.87Z"/>
    <path class="cls-2" d="M1390.25,72.56c0-1.98,1.62-3.6,3.6-3.6h16.51c1.98,0,3.6,1.62,3.6,3.6v123.11c0,1.98-1.62,3.6-3.6,3.6h-16.51c-1.98,0-3.6-1.62-3.6-3.6v-123.11Z"/>
    <path class="cls-2" d="M1439.17,192.57c-6.18-5.71-8.67-20.65-8.67-20.65-.33-1.95-.59-5.17-.59-7.15v-61.3c0-1.98.27-5.2.59-7.15,0,0,2.49-14.94,8.67-20.65,6.18-5.71,15.09-8.56,26.72-8.56s20.54,2.86,26.72,8.56c6.18,5.71,8.67,20.65,8.67,20.65.33,1.95.59,5.17.59,7.15v61.3c0,1.98-.27,5.2-.59,7.15,0,0-2.5,14.94-8.67,20.65-6.18,5.71-15.08,8.56-26.72,8.56s-20.55-2.85-26.72-8.56ZM1477.08,173.1c.6-1.89,1.09-5.05,1.09-7.03v-63.91c0-1.98-.49-5.14-1.09-7.03,0,0-3-9.41-11.19-9.41s-11.19,9.41-11.19,9.41c-.6,1.89-1.09,5.05-1.09,7.03v63.91c0,1.98.49,5.14,1.09,7.03,0,0,3,9.41,11.19,9.41s11.19-9.41,11.19-9.41Z"/>
  </g>
</svg>